# xmcd CD database file generated by Grip 3.2.0
# 
# Track frame offsets:
#       182
#       17682
#       27882
#       39607
#       55395
#       67445
#       79220
#       92120
#       107470
#       121895
#       136970
#       152020
#       170407
# 
# Disc length: 2406 seconds
# 
# Revision: 3
# Processed by: cddbd v1.5.2PL0 Copyright (c) Steve Scherf et al.
# Submitted via: Grip 3.2.0
# 
DISCID=ab09640d
DTITLE=John Denver - Christmas Like A Lullaby
DYEAR=1995
DGENRE=Country
TTITLE0=Christmas Like A Lullaby
TTITLE1=The First Noel
TTITLE2=Away In A Manger
TTITLE3=The Children Of Bethlehem
TTITLE4=Rudolph The Red Nosed Reindeer
TTITLE5=White Christmas
TTITLE6=Marvelous Toy
TTITLE7=Blue Christmas
TTITLE8=Jingle Bells
TTITLE9=Little Drummer Boy
TTITLE10=Mary's Boy Child
TTITLE11=The Christmas Song
TTITLE12=Have Yourself A Merry Little Christmas
EXTD=
EXTT0=
EXTT1=
EXTT2=
EXTT3=
EXTT4=
EXTT5=
EXTT6=
EXTT7=
EXTT8=
EXTT9=
EXTT10=
EXTT11=
EXTT12=
PLAYORDER=
